<svg width="50" height="50" viewBox="0 0 50 50" fill="none" xmlns="http://www.w3.org/2000/svg">
<path d="M25 4.16655C36.5007 4.17918 45.8207 13.4992 45.8333 24.9999V25.4165C45.6043 36.8654 36.1779 45.9833 24.7278 45.8314C13.2776 45.6795 4.09646 36.3147 4.17128 24.8638C4.24609 13.4128 13.5488 4.16884 25 4.16655ZM25 41.6665C34.2047 41.6665 41.6667 34.2046 41.6667 24.9999C41.6667 15.7951 34.2047 8.33322 25 8.33322C15.7952 8.33322 8.33333 15.7951 8.33333 24.9999C8.34366 34.2003 15.7995 41.6562 25 41.6665ZM28.0208 14.5832L30.9667 17.5311L23.6021 24.8957L30.9667 32.2603L28.0208 35.2082L17.7083 24.8957L28.0187 14.5832H28.0208Z" fill="#4CA9EE"/>
</svg>
