<svg width="50" height="50" viewBox="0 0 50 50" fill="none" xmlns="http://www.w3.org/2000/svg">
<path d="M25 45.8335C13.4993 45.8208 4.1793 36.5008 4.16667 25.0001V24.5835C4.3957 13.1346 13.8221 4.01669 25.2722 4.16862C36.7224 4.32054 45.9035 13.6853 45.8287 25.1362C45.7539 36.5872 36.4512 45.8312 25 45.8335ZM25 8.33345C15.7953 8.33345 8.33334 15.7954 8.33334 25.0001C8.33334 34.2049 15.7953 41.6668 25 41.6668C34.2048 41.6668 41.6667 34.2049 41.6667 25.0001C41.6563 15.7997 34.2005 8.34378 25 8.33345ZM21.9792 35.4168L19.0333 32.4689L26.3979 25.1043L19.0333 17.7397L21.9792 14.7918L32.2917 25.1043L21.9813 35.4168H21.9792Z" fill="#4CA9EE"/>
</svg>
