<svg width="30" height="30" viewBox="0 0 30 30" fill="none" xmlns="http://www.w3.org/2000/svg">
<path d="M15 26.25C13.4212 24.9033 11.9577 23.4269 10.625 21.8363C8.625 19.4475 6.25 15.89 6.25 12.5C6.24823 8.95943 8.38031 5.76674 11.6513 4.41175C14.9224 3.05676 18.6876 3.80655 21.19 6.31125C22.8356 7.94951 23.7574 10.178 23.75 12.5C23.75 15.89 21.375 19.4475 19.375 21.8363C18.0423 23.4269 16.5788 24.9033 15 26.25ZM15 8.75C13.6603 8.75 12.4223 9.46475 11.7524 10.625C11.0825 11.7853 11.0825 13.2147 11.7524 14.375C12.4223 15.5353 13.6603 16.25 15 16.25C17.0711 16.25 18.75 14.5711 18.75 12.5C18.75 10.4289 17.0711 8.75 15 8.75Z" fill="#FF0000"/>
</svg>
