<svg width="24" height="24" viewBox="0 0 24 24" fill="none" xmlns="http://www.w3.org/2000/svg">
<path d="M11.4286 9.14286H13.7143V5.71429H17.1429V3.42857H13.7143V0H11.4286V3.42857H8V5.71429H11.4286V9.14286ZM6.85714 19.4286C5.6 19.4286 4.58286 20.4571 4.58286 21.7143C4.58286 22.9714 5.6 24 6.85714 24C8.11429 24 9.14286 22.9714 9.14286 21.7143C9.14286 20.4571 8.11429 19.4286 6.85714 19.4286ZM18.2857 19.4286C17.0286 19.4286 16.0114 20.4571 16.0114 21.7143C16.0114 22.9714 17.0286 24 18.2857 24C19.5429 24 20.5714 22.9714 20.5714 21.7143C20.5714 20.4571 19.5429 19.4286 18.2857 19.4286ZM7.05143 15.7143L7.08571 15.5771L8.11429 13.7143H16.6286C17.4857 13.7143 18.24 13.2457 18.6286 12.5371L23.04 4.52571L21.0514 3.42857H21.04L19.7829 5.71429L16.6286 11.4286H8.60571L8.45714 11.12L5.89714 5.71429L4.81143 3.42857L3.73714 1.14286H0V3.42857H2.28571L6.4 12.1029L4.85714 14.9029C4.67429 15.2229 4.57143 15.6 4.57143 16C4.57143 17.2571 5.6 18.2857 6.85714 18.2857H20.5714V16H7.33714C7.18857 16 7.05143 15.8743 7.05143 15.7143Z" fill="white"/>
</svg>
